<svg width="82" height="18" viewBox="0 0 82 18" fill="none" xmlns="http://www.w3.org/2000/svg">
<path fill-rule="evenodd" clip-rule="evenodd" d="M4.25272 10.2993L3.46918 11.7654V16.6909H0.934204V0.654525H3.46918V7.6418L6.7877 0.654525H9.32268L5.79676 7.80216L9.32268 16.6909H6.71857L4.25272 10.2993ZM12.9013 13.0025C12.9013 13.5829 13.0203 13.9914 13.2585 14.2282C13.4966 14.4649 13.8154 14.5833 14.2149 14.5833C14.6143 14.5833 14.9331 14.4649 15.1712 14.2282C15.4094 13.9914 15.5284 13.5829 15.5284 13.0025V4.34289C15.5284 3.76252 15.4094 3.35398 15.1712 3.11725C14.9331 2.88052 14.6143 2.76216 14.2149 2.76216C13.8154 2.76216 13.4966 2.88052 13.2585 3.11725C13.0203 3.35398 12.9013 3.76252 12.9013 4.34289V13.0025ZM10.3663 4.50325C10.3663 3.20506 10.6966 2.20853 11.3572 1.51362C12.0179 0.818704 12.9704 0.471252 14.2149 0.471252C15.4593 0.471252 16.4118 0.818704 17.0725 1.51362C17.7331 2.20853 18.0634 3.20506 18.0634 4.50325V12.8422C18.0634 14.1404 17.7331 15.1369 17.0725 15.8318C16.4118 16.5267 15.4593 16.8742 14.2149 16.8742C12.9704 16.8742 12.0179 16.5267 11.3572 15.8318C10.6966 15.1369 10.3663 14.1404 10.3663 12.8422V4.50325ZM22.2182 5.07598V16.6909H19.9367V0.654525H23.1169L25.721 10.2534V0.654525H27.9795V16.6909H25.3754L22.2182 5.07598ZM29.7375 4.50325C29.7375 3.20506 30.0486 2.20853 30.6708 1.51362C31.2931 0.818704 32.2264 0.471252 33.4708 0.471252C34.7153 0.471252 35.6486 0.818704 36.2708 1.51362C36.8931 2.20853 37.2042 3.20506 37.2042 4.50325V5.00725H34.8075V4.34289C34.8075 3.76252 34.6961 3.35398 34.4733 3.11725C34.2505 2.88052 33.9394 2.76216 33.54 2.76216C33.1405 2.76216 32.8294 2.88052 32.6066 3.11725C32.3839 3.35398 32.2725 3.76252 32.2725 4.34289C32.2725 4.89271 32.3954 5.37761 32.6412 5.79762C32.887 6.21762 33.1943 6.61471 33.563 6.98889C33.9317 7.36307 34.3273 7.73725 34.7498 8.11143C35.1723 8.48562 35.5679 8.89416 35.9367 9.33707C36.3054 9.77998 36.6127 10.284 36.8585 10.8491C37.1043 11.4142 37.2272 12.0785 37.2272 12.8422C37.2272 14.1404 36.9084 15.1369 36.2708 15.8318C35.6332 16.5267 34.6922 16.8742 33.4478 16.8742C32.2033 16.8742 31.2623 16.5267 30.6247 15.8318C29.9871 15.1369 29.6684 14.1404 29.6684 12.8422V11.8571H32.0651V13.0025C32.0651 13.5829 32.1841 13.9876 32.4223 14.2167C32.6604 14.4458 32.9792 14.5603 33.3786 14.5603C33.7781 14.5603 34.0969 14.4458 34.335 14.2167C34.5732 13.9876 34.6922 13.5829 34.6922 13.0025C34.6922 12.4527 34.5693 11.9678 34.3235 11.5478C34.0777 11.1278 33.7704 10.7307 33.4017 10.3565C33.033 9.98234 32.6374 9.60816 32.2149 9.23398C31.7924 8.8598 31.3968 8.45126 31.028 8.00834C30.6593 7.56543 30.352 7.06144 30.1062 6.49634C29.8604 5.93125 29.7375 5.26689 29.7375 4.50325ZM38.2017 0.654525H46.0371V2.94543H43.3869V16.6909H40.8519V2.94543H38.2017V0.654525ZM52.7037 16.6909C52.673 16.584 52.6423 16.4847 52.6116 16.3931C52.5808 16.3014 52.554 16.1869 52.5309 16.0494C52.5079 15.912 52.4925 15.7363 52.4848 15.5225C52.4771 15.3087 52.4733 15.0414 52.4733 14.7207V12.2007C52.4733 11.4523 52.3427 10.9254 52.0815 10.62C51.8203 10.3145 51.3979 10.1618 50.814 10.1618H49.9383V16.6909H47.4033V0.654525H51.2289C52.5501 0.654525 53.5065 0.959976 54.098 1.57089C54.6895 2.1818 54.9852 3.10579 54.9852 4.34289V5.60289C54.9852 7.25235 54.4322 8.3367 53.326 8.85598C53.9712 9.11562 54.4129 9.53943 54.6511 10.1274C54.8892 10.7154 55.0083 11.4294 55.0083 12.2694V14.7436C55.0083 15.1407 55.0236 15.4882 55.0544 15.786C55.0851 16.0838 55.1619 16.3854 55.2848 16.6909H52.7037ZM49.9383 2.94543V7.87089H50.9293C51.4055 7.87089 51.7781 7.74871 52.047 7.50434C52.3158 7.25998 52.4503 6.81707 52.4503 6.17562V4.59489C52.4503 4.01452 52.3465 3.59453 52.1391 3.33489C51.9317 3.07525 51.6053 2.94543 51.1597 2.94543H49.9383ZM59.3474 0.654525V13.0254C59.3474 13.6058 59.4664 14.0105 59.7046 14.2396C59.9427 14.4687 60.2615 14.5833 60.661 14.5833C61.0604 14.5833 61.3792 14.4687 61.6173 14.2396C61.8555 14.0105 61.9745 13.6058 61.9745 13.0254V0.654525H64.3712V12.8651C64.3712 14.1633 64.0525 15.1598 63.4149 15.8547C62.7773 16.5496 61.8363 16.8971 60.5918 16.8971C59.3474 16.8971 58.4064 16.5496 57.7688 15.8547C57.1312 15.1598 56.8124 14.1633 56.8124 12.8651V0.654525H59.3474ZM73.2865 0.654525H81.1218V2.94543H78.4716V16.6909H75.9367V2.94543H73.2865V0.654525Z" fill="#171819"/>
<path fill-rule="evenodd" clip-rule="evenodd" d="M65.5753 8.98834L72.1597 0.806519V17.1702L65.5753 8.98834Z" fill="#00A4E5"/>
</svg>
